<svg width="389" height="314" viewBox="0 0 389 314" fill="none" xmlns="http://www.w3.org/2000/svg">
<path d="M313.029 312.684V308.086C309.964 312.127 304.25 313.799 299.373 313.799C294.774 313.799 289.896 312.336 286.761 308.922C283.068 304.88 283.207 300.212 283.207 295.195V276.591C283.207 273.456 283.695 268.369 280.142 267.045V266.836H293.38V267.045C289.896 268.369 290.315 273.456 290.315 276.591V295.195C290.315 304.462 294.216 308.782 301.393 308.782C305.295 308.782 309.267 307.18 311.566 303.905C313.099 301.815 313.029 300.073 313.029 297.564V276.591C313.029 273.456 313.447 268.369 309.964 267.045V266.836H323.202L323.272 267.045C319.718 268.369 320.136 273.456 320.136 276.661V302.929C320.136 306.065 319.718 311.151 323.272 312.475V312.684H313.029Z" fill="#D97721"/>
<path d="M243.558 266.836H260.141C269.478 266.836 274.564 271.714 274.564 278.055C274.564 284.186 269.199 288.994 263.485 290.318L273.519 302.929C276.445 306.553 280.835 310.176 284.807 312.684H278.396C274.703 312.684 272.404 311.778 270.314 309.2L261.813 298.679L255.403 288.855C260.977 288.018 267.457 285.44 267.457 278.891C267.457 273.874 263.137 270.947 258.469 271.156C256.866 271.226 255.333 271.435 253.731 271.714V302.929C253.731 306.135 253.312 311.221 256.866 312.475V312.684H243.558V312.475C247.111 311.221 246.623 306.065 246.623 302.929V276.661C246.623 273.456 247.111 268.369 243.558 267.045V266.836Z" fill="#D97721"/>
<path d="M217.81 290.318V306.831L226.659 307.667C231.258 308.086 236.065 306.622 239.549 303.556H239.758L236.623 312.684H207.567V312.475C211.121 311.221 210.703 306.065 210.703 302.929V276.661C210.703 273.456 211.121 268.369 207.567 267.045V266.836H229.864C231.049 266.836 232.233 266.976 233.139 266.488H233.348V274.64H233.139C230.979 272.132 228.122 271.853 224.917 271.853C222.478 271.853 220.04 271.923 217.81 272.341V285.301H226.102C227.216 285.301 228.331 285.301 229.167 284.883H229.376V292.269H229.167C228.053 290.248 225.126 290.318 222.966 290.318H217.81Z" fill="#D97721"/>
<path d="M174.025 300.769L185.591 271.226C186.149 269.763 186.637 268.369 186.637 266.906V266.836H198.691V267.045C197.019 267.533 196.531 269.554 196.531 271.156L201.129 305.368C201.548 308.643 201.896 310.524 204.683 312.475V312.684H191.235V312.475C193.674 311.709 194.092 309.618 194.092 307.249L190.12 273.665L174.513 313.59C171.029 310.942 170.053 309.061 168.381 305.159L155.142 273.735L151.171 303.696C150.613 307.946 150.126 311.012 153.4 312.475V312.684H142.043V312.475C144.969 309.897 145.387 306.483 145.945 302.72L149.917 273.525C150.195 271.574 150.962 268.787 147.757 267.045V266.836H159.95V266.906C159.95 268.021 160.508 269.066 160.926 270.042L174.025 300.769Z" fill="#D97721"/>
<path d="M118.873 290.318V306.831L127.722 307.667C132.321 308.086 137.129 306.622 140.613 303.556H140.822L137.686 312.684H108.631V312.475C112.184 311.221 111.766 306.065 111.766 302.929V276.661C111.766 273.456 112.184 268.369 108.631 267.045V266.836H130.928C132.112 266.836 133.297 266.976 134.203 266.488H134.412V274.64H134.203C132.043 272.132 129.186 271.853 125.981 271.853C123.542 271.853 121.103 271.923 118.873 272.341V285.301H127.165C128.28 285.301 129.395 285.301 130.231 284.883H130.44V292.269H130.231C129.116 290.248 126.19 290.318 124.03 290.318H118.873Z" fill="#D97721"/>
<path d="M99.3264 267.254V275.128C96.6089 272.341 92.2889 270.738 88.387 270.738C84.4154 270.738 79.3986 272.271 79.3986 277.079C79.3986 286.625 103.368 286.485 103.368 299.376C103.368 306.831 95.5638 313.799 84.6941 313.799C80.4438 313.799 76.1934 313.172 72.2218 311.709L70.2012 302.999C74.3121 306.553 80.0257 308.782 85.4605 308.782C89.4322 308.782 95.4244 306.413 95.4244 301.536C95.4244 290.666 71.4554 292.617 71.4554 277.845C71.4554 269.066 80.4438 265.722 88.9444 265.722C92.4283 265.722 95.9818 266.209 99.3264 267.254Z" fill="#D97721"/>
<path fill-rule="evenodd" clip-rule="evenodd" d="M200.19 156.647C200.19 156.647 192.325 127.324 214.936 110.308C237.547 93.2929 230.993 64.3273 217.558 48.0363C217.558 48.0363 244.988 63.4382 243.964 90.7764C242.648 125.916 213.332 125.215 200.19 156.647Z" fill="url(#paint0_linear_5_1417)"/>
<mask id="mask0_5_1417" style="mask-type:luminance" maskUnits="userSpaceOnUse" x="198" y="48" width="46" height="109">
<path d="M200.19 156.647C200.19 156.647 192.325 127.324 214.936 110.308C237.547 93.2929 230.993 64.3273 217.558 48.0363C217.558 48.0363 244.988 63.4382 243.964 90.7764C242.648 125.916 213.332 125.215 200.19 156.647Z" fill="white"/>
</mask>
<g mask="url(#mask0_5_1417)">
<path fill-rule="evenodd" clip-rule="evenodd" d="M199.571 164.228C199.571 164.228 200.106 137.879 216.136 122.28C222.069 116.508 228.814 108.898 232.417 99.4118C237.515 85.9842 236.318 68.7923 217.62 47.6794L217.106 36.382L249.719 61.5624L248.316 107.664L235.691 128.584L199.571 164.228Z" fill="url(#paint1_linear_5_1417)"/>
</g>
<path fill-rule="evenodd" clip-rule="evenodd" d="M188.043 156.647C188.043 156.647 195.908 127.324 173.297 110.308C150.686 93.2929 157.24 64.3273 170.675 48.0363C170.675 48.0363 143.246 63.4382 144.269 90.7764C145.585 125.916 174.902 125.215 188.043 156.647Z" fill="url(#paint2_linear_5_1417)"/>
<mask id="mask1_5_1417" style="mask-type:luminance" maskUnits="userSpaceOnUse" x="144" y="48" width="46" height="109">
<path d="M188.043 156.647C188.043 156.647 195.908 127.324 173.297 110.308C150.686 93.2929 157.24 64.3273 170.675 48.0363C170.675 48.0363 143.246 63.4382 144.269 90.7764C145.585 125.916 174.902 125.215 188.043 156.647Z" fill="white"/>
</mask>
<g mask="url(#mask1_5_1417)">
<path fill-rule="evenodd" clip-rule="evenodd" d="M189.007 164.228C189.007 164.228 188.472 137.879 172.442 122.28C158.113 108.337 139.046 83.7074 170.958 47.6794L171.473 36.382L138.859 61.5624L140.262 107.664L152.887 128.584L189.007 164.228Z" fill="url(#paint3_linear_5_1417)"/>
</g>
<path fill-rule="evenodd" clip-rule="evenodd" d="M194.117 0.608032L211.03 59.0916L194.117 117.575L177.204 59.0916L194.117 0.608032Z" fill="url(#paint4_linear_5_1417)"/>
<mask id="mask2_5_1417" style="mask-type:luminance" maskUnits="userSpaceOnUse" x="177" y="0" width="35" height="118">
<path d="M194.117 0.607544L211.03 59.0911L194.117 117.574L177.204 59.0911L194.117 0.607544Z" fill="white"/>
</mask>
<g mask="url(#mask2_5_1417)">
<path fill-rule="evenodd" clip-rule="evenodd" d="M193.89 0.275757V123.164L169.504 48.9727L193.89 0.275757Z" fill="url(#paint5_linear_5_1417)"/>
</g>
<path fill-rule="evenodd" clip-rule="evenodd" d="M193.995 202.392L217.695 175.615C217.695 175.615 236.911 247.638 353.926 230.324C353.926 230.324 332.23 229.461 313.05 210.378C289.505 186.949 244.322 193.938 244.322 193.938C244.322 193.938 286.451 179.045 314.636 196.432C322.197 201.098 334.618 207.269 348.986 215.845C369.528 228.102 388.068 225.116 388.068 225.116C388.068 225.116 315.908 297.261 209.646 216.935L193.995 233.745L178.295 216.935C72.033 297.261 0.167969 225.116 0.167969 225.116C0.167969 225.116 18.7081 228.102 39.2496 215.845C53.6173 207.269 66.0391 201.098 73.5998 196.432C101.785 179.045 143.914 193.938 143.914 193.938C143.914 193.938 98.7307 186.949 75.1854 210.378C56.006 229.461 34.3094 230.324 34.3094 230.324C151.325 247.638 170.54 175.615 170.54 175.615L193.995 202.392Z" fill="url(#paint6_linear_5_1417)"/>
<mask id="mask3_5_1417" style="mask-type:luminance" maskUnits="userSpaceOnUse" x="0" y="175" width="389" height="80">
<path d="M193.995 202.392L217.695 175.615C217.695 175.615 236.911 247.638 353.926 230.324C353.926 230.324 332.23 229.461 313.05 210.378C289.505 186.949 244.322 193.938 244.322 193.938C244.322 193.938 286.451 179.045 314.636 196.432C322.197 201.098 334.618 207.269 348.986 215.845C369.528 228.102 388.068 225.116 388.068 225.116C388.068 225.116 315.908 297.261 209.646 216.935L193.995 233.745L178.295 216.935C72.033 297.261 0.167969 225.116 0.167969 225.116C0.167969 225.116 18.7081 228.102 39.2496 215.845C53.6173 207.269 66.0391 201.098 73.5998 196.432C101.785 179.045 143.914 193.938 143.914 193.938C143.914 193.938 98.7307 186.949 75.1854 210.378C56.006 229.461 34.3094 230.324 34.3094 230.324C151.325 247.638 170.54 175.615 170.54 175.615L193.995 202.392Z" fill="white"/>
</mask>
<g mask="url(#mask3_5_1417)">
<path fill-rule="evenodd" clip-rule="evenodd" d="M0.167969 225.117C0.167969 225.117 97.412 279.525 178.169 199.789L193.962 213.665L194.118 235.589L66.7554 264.879L0.167969 251.711V225.117Z" fill="url(#paint7_linear_5_1417)"/>
<path fill-rule="evenodd" clip-rule="evenodd" d="M237.868 195.868C237.868 195.868 285.829 177.931 319.634 208.048C337.33 223.812 362.234 227.188 365.389 227.51C365.389 227.51 353.597 231.663 342.205 231.179L290.024 215.391L281.787 204.081L237.868 195.868Z" fill="url(#paint8_linear_5_1417)"/>
<path fill-rule="evenodd" clip-rule="evenodd" d="M150.674 195.868C150.674 195.868 102.713 177.931 68.9083 208.048C51.212 223.812 26.3081 227.188 23.1533 227.51C23.1533 227.51 34.9446 231.663 46.337 231.179L98.5177 215.391L106.755 204.081L150.674 195.868Z" fill="url(#paint9_linear_5_1417)"/>
<path fill-rule="evenodd" clip-rule="evenodd" d="M388.067 225.117C388.067 225.117 290.246 279.525 209.49 199.789L193.961 213.665L192.671 236.54L321.48 264.879L388.067 251.711V225.117Z" fill="url(#paint10_linear_5_1417)"/>
<path fill-rule="evenodd" clip-rule="evenodd" d="M178.01 220.357L178.165 199.836L194.08 213.537L209.641 199.639V219.477L194.945 239.851L178.01 220.357Z" fill="url(#paint11_linear_5_1417)"/>
</g>
<path fill-rule="evenodd" clip-rule="evenodd" d="M183.566 178.169C183.566 178.169 189.146 145.07 151.046 134.522C112.946 123.978 107.559 109.12 107.071 115.857C106.548 123.083 110.423 125.778 120.11 132.602C120.11 132.602 110.8 139.667 99.8222 126.64C88.8443 113.614 77.1318 120.997 77.1318 120.997C77.1318 120.997 87.4642 125.002 96.6446 142.615C101.504 151.941 113.657 154.788 132.704 156.255C147.095 157.363 169.516 154.908 183.566 178.169Z" fill="url(#paint12_linear_5_1417)"/>
<mask id="mask4_5_1417" style="mask-type:luminance" maskUnits="userSpaceOnUse" x="77" y="114" width="107" height="65">
<path d="M183.566 178.169C183.566 178.169 189.146 145.07 151.046 134.522C112.946 123.978 107.559 109.12 107.071 115.857C106.548 123.083 110.423 125.778 120.11 132.602C120.11 132.602 110.8 139.667 99.8222 126.64C88.8443 113.614 77.1318 120.997 77.1318 120.997C77.1318 120.997 87.4642 125.002 96.6446 142.615C101.504 151.941 113.657 154.788 132.704 156.255C147.095 157.363 169.516 154.908 183.566 178.169Z" fill="white"/>
</mask>
<g mask="url(#mask4_5_1417)">
<path fill-rule="evenodd" clip-rule="evenodd" d="M72.6191 120.349C72.6191 120.349 85.3245 119.347 93.0384 129.122C100.752 138.897 110.082 146.714 135.038 147.968C159.995 149.223 174.715 153.685 183.791 179.251L118.903 169.977L75.5684 146.916L72.6191 120.349Z" fill="url(#paint13_linear_5_1417)"/>
</g>
<path fill-rule="evenodd" clip-rule="evenodd" d="M204.668 178.169C204.668 178.169 199.088 145.07 237.188 134.522C275.288 123.978 280.676 109.12 281.164 115.857C281.686 123.083 277.811 125.778 268.125 132.602C268.125 132.602 277.434 139.667 288.412 126.64C299.39 113.614 311.103 120.997 311.103 120.997C311.103 120.997 300.77 125.002 291.59 142.615C286.731 151.941 274.577 154.788 255.531 156.255C241.14 157.363 218.719 154.908 204.668 178.169Z" fill="url(#paint14_linear_5_1417)"/>
<mask id="mask5_5_1417" style="mask-type:luminance" maskUnits="userSpaceOnUse" x="204" y="114" width="108" height="65">
<path d="M204.668 178.169C204.668 178.169 199.088 145.07 237.188 134.522C275.288 123.978 280.676 109.12 281.164 115.857C281.686 123.083 277.811 125.778 268.125 132.602C268.125 132.602 277.434 139.667 288.412 126.64C299.39 113.614 311.103 120.997 311.103 120.997C311.103 120.997 300.77 125.002 291.59 142.615C286.731 151.941 274.577 154.788 255.531 156.255C241.14 157.363 218.719 154.908 204.668 178.169Z" fill="white"/>
</mask>
<g mask="url(#mask5_5_1417)">
<path fill-rule="evenodd" clip-rule="evenodd" d="M315.469 120.349C315.469 120.349 302.763 119.347 295.049 129.122C287.335 138.897 278.006 146.714 253.049 147.968C228.093 149.223 213.373 153.685 204.297 179.251L269.185 169.977L312.519 146.916L315.469 120.349Z" fill="url(#paint15_linear_5_1417)"/>
</g>
<defs>
<linearGradient id="paint0_linear_5_1417" x1="194.485" y1="150.536" x2="194.485" y2="48.7335" gradientUnits="userSpaceOnUse">
<stop stop-color="#F5DE11"/>
<stop offset="1" stop-color="#D97721"/>
</linearGradient>
<linearGradient id="paint1_linear_5_1417" x1="235.286" y1="154.16" x2="235.286" y2="51.8394" gradientUnits="userSpaceOnUse">
<stop stop-color="#D97721"/>
<stop offset="1" stop-color="#F5DE11"/>
</linearGradient>
<linearGradient id="paint2_linear_5_1417" x1="194.486" y1="150.536" x2="194.486" y2="48.7335" gradientUnits="userSpaceOnUse">
<stop stop-color="#F5DE11"/>
<stop offset="1" stop-color="#D97721"/>
</linearGradient>
<linearGradient id="paint3_linear_5_1417" x1="164.238" y1="154.16" x2="164.238" y2="43.8092" gradientUnits="userSpaceOnUse">
<stop stop-color="#D97721"/>
<stop offset="1" stop-color="#F5DE11"/>
</linearGradient>
<linearGradient id="paint4_linear_5_1417" x1="194.449" y1="0.062232" x2="194.449" y2="119.22" gradientUnits="userSpaceOnUse">
<stop stop-color="#F5DE11"/>
<stop offset="1" stop-color="#D97721"/>
</linearGradient>
<linearGradient id="paint5_linear_5_1417" x1="190.703" y1="3.38224" x2="190.703" y2="114.666" gradientUnits="userSpaceOnUse">
<stop stop-color="#D97721"/>
<stop offset="1" stop-color="#F5DE11"/>
</linearGradient>
<linearGradient id="paint6_linear_5_1417" x1="-6.62496" y1="178.455" x2="395.524" y2="178.455" gradientUnits="userSpaceOnUse">
<stop stop-color="#0881B8"/>
<stop offset="0.5" stop-color="#ACCF4F"/>
<stop offset="1" stop-color="#0881B8"/>
</linearGradient>
<linearGradient id="paint7_linear_5_1417" x1="191.386" y1="219.617" x2="-0.477201" y2="219.617" gradientUnits="userSpaceOnUse">
<stop stop-color="#6AB148"/>
<stop offset="1" stop-color="#006CA0"/>
</linearGradient>
<linearGradient id="paint8_linear_5_1417" x1="353.686" y1="230.361" x2="245.077" y2="204.444" gradientUnits="userSpaceOnUse">
<stop stop-color="#006CA0"/>
<stop offset="1" stop-color="#ACCF4F"/>
</linearGradient>
<linearGradient id="paint9_linear_5_1417" x1="30.3583" y1="231.321" x2="132.225" y2="204.105" gradientUnits="userSpaceOnUse">
<stop stop-color="#006CA0"/>
<stop offset="1" stop-color="#ACCF4F"/>
</linearGradient>
<linearGradient id="paint10_linear_5_1417" x1="192.613" y1="230.247" x2="396.659" y2="241.378" gradientUnits="userSpaceOnUse">
<stop stop-color="#6AB148"/>
<stop offset="1" stop-color="#006CA0"/>
</linearGradient>
<linearGradient id="paint11_linear_5_1417" x1="177.781" y1="212.561" x2="210.281" y2="212.447" gradientUnits="userSpaceOnUse">
<stop stop-color="#6AB148"/>
<stop offset="0.5" stop-color="#549436"/>
<stop offset="1" stop-color="#6AB148"/>
</linearGradient>
<linearGradient id="paint12_linear_5_1417" x1="180.149" y1="165.945" x2="88.5149" y2="125.465" gradientUnits="userSpaceOnUse">
<stop stop-color="#F5DE11"/>
<stop offset="1" stop-color="#D97721"/>
</linearGradient>
<linearGradient id="paint13_linear_5_1417" x1="169.066" y1="166.243" x2="70.9485" y2="134.852" gradientUnits="userSpaceOnUse">
<stop stop-color="#D97721"/>
<stop offset="1" stop-color="#F5DE11"/>
</linearGradient>
<linearGradient id="paint14_linear_5_1417" x1="204.692" y1="162.706" x2="296.687" y2="127.576" gradientUnits="userSpaceOnUse">
<stop stop-color="#F5DE11"/>
<stop offset="1" stop-color="#D97721"/>
</linearGradient>
<linearGradient id="paint15_linear_5_1417" x1="212.453" y1="172.481" x2="318.395" y2="135.68" gradientUnits="userSpaceOnUse">
<stop stop-color="#D97721"/>
<stop offset="1" stop-color="#F5DE11"/>
</linearGradient>
</defs>
</svg>
